<svg width="349" height="129" viewBox="0 0 349 129" fill="none" xmlns="http://www.w3.org/2000/svg">
<path fill-rule="evenodd" clip-rule="evenodd" d="M48.02 114.5L14.1828 114.5C14.1828 69.7381 14.1828 14.5 64.1828 14.5L64.1828 67.523C48.02 67.523 48.02 93.4722 48.02 114.5Z" fill="#01E1FF"/>
<path fill-rule="evenodd" clip-rule="evenodd" d="M64.1828 14.5L64.1828 67.523C80.3456 67.523 80.3456 93.4722 80.3456 114.5L114.183 114.5C114.183 69.7381 114.183 14.5 64.1828 14.5Z" fill="url(#paint0_linear)"/>
<path d="M64.1828 114.5V72.5C76.1828 72.5 76.1828 95.7 76.1828 114.5H64.1828Z" fill="#01E1FF"/>
<path d="M64.1828 114.5V72.5C52.1828 72.5 52.1828 95.7 52.1828 114.5H64.1828Z" fill="url(#paint1_linear)"/>
<path d="M144.992 89.436C142.208 89.436 139.544 89.124 137 88.5C134.504 87.876 132.344 87.036 130.52 85.98L131.384 76.332C133.544 77.676 135.8 78.732 138.152 79.5C140.552 80.22 142.76 80.58 144.776 80.58C147.08 80.58 148.952 80.1 150.392 79.14C151.832 78.18 152.552 76.908 152.552 75.324C152.552 74.028 152.072 73.044 151.112 72.372C150.152 71.652 148.64 70.884 146.576 70.068L144.848 69.348C144.608 69.252 144.344 69.156 144.056 69.06C143.768 68.916 143.432 68.772 143.048 68.628C140.36 67.524 138.2 66.492 136.568 65.532C134.936 64.524 133.52 63.132 132.32 61.356C131.168 59.58 130.592 57.276 130.592 54.444C130.592 49.836 132.152 46.212 135.272 43.572C138.392 40.932 142.736 39.612 148.304 39.612C152.528 39.612 156.848 40.476 161.264 42.204L159.68 51.708C157.904 50.7 155.984 49.908 153.92 49.332C151.904 48.756 149.984 48.468 148.16 48.468C145.904 48.468 144.152 48.924 142.904 49.836C141.656 50.7 141.032 51.876 141.032 53.364C141.032 54.66 141.464 55.668 142.328 56.388C143.192 57.108 144.584 57.876 146.504 58.692L149.456 59.844C152.24 60.9 154.544 61.932 156.368 62.94C158.192 63.948 159.752 65.412 161.048 67.332C162.344 69.204 162.992 71.652 162.992 74.676C162.992 79.332 161.408 82.956 158.24 85.548C155.072 88.14 150.656 89.436 144.992 89.436ZM171.273 40.548C172.665 40.5 175.305 40.476 179.193 40.476C183.129 40.476 185.793 40.5 187.185 40.548C192.129 40.644 196.017 41.964 198.849 44.508C201.681 47.052 203.097 50.58 203.097 55.092C203.097 58.308 202.377 61.164 200.937 63.66C199.497 66.108 197.457 68.004 194.817 69.348C192.225 70.692 189.273 71.364 185.961 71.364H181.281V88.5H171.273V40.548ZM185.529 62.868C187.881 62.868 189.705 62.196 191.001 60.852C192.345 59.508 193.017 57.684 193.017 55.38C193.017 51.156 190.689 49.044 186.033 49.044H181.281V62.868H185.529ZM219.743 40.548H232.271L250.055 88.5H239.255L235.367 77.556H216.503L212.831 88.5H202.175L219.743 40.548ZM232.271 68.628L225.791 50.268L219.527 68.628H232.271ZM263.138 88.572C259.73 88.572 257.186 88.548 255.506 88.5V40.548C257.57 40.5 260.618 40.476 264.65 40.476C268.73 40.476 271.778 40.5 273.794 40.548C278.498 40.596 282.578 41.556 286.034 43.428C289.538 45.252 292.226 47.868 294.098 51.276C296.018 54.684 296.978 58.668 296.978 63.228C296.978 68.22 295.874 72.612 293.666 76.404C291.506 80.196 288.434 83.148 284.45 85.26C280.514 87.372 275.93 88.452 270.698 88.5C269.018 88.548 266.498 88.572 263.138 88.572ZM270.626 79.428C275.474 79.428 279.29 78.012 282.074 75.18C284.858 72.348 286.25 68.46 286.25 63.516C286.25 59.052 285.05 55.62 282.65 53.22C280.298 50.82 276.89 49.62 272.426 49.62H265.946V79.428H270.626ZM304.867 40.548H334.027V49.62H315.163V59.196H330.787V67.98H315.163V79.428H334.027V88.5H304.867V40.548Z" fill="black"/>
<defs>
<linearGradient id="paint0_linear" x1="114.183" y1="60.4016" x2="64.1828" y2="60.4016" gradientUnits="userSpaceOnUse">
<stop stop-color="#00BCD6"/>
<stop offset="1" stop-color="#00BCD6"/>
</linearGradient>
<linearGradient id="paint1_linear" x1="52.1828" y1="91.7787" x2="64.1828" y2="91.7787" gradientUnits="userSpaceOnUse">
<stop stop-color="#00BCD6"/>
<stop offset="1" stop-color="#00BCD6"/>
</linearGradient>
</defs>
</svg>
